<svg width="20" height="21" viewBox="0 0 20 21" fill="none" xmlns="http://www.w3.org/2000/svg">
<path d="M0.750122 1.24988L2.83012 1.60988L3.79312 13.0829C3.87012 14.0199 4.65312 14.7389 5.59312 14.7359H16.5021C17.3991 14.7379 18.1601 14.0779 18.2871 13.1899L19.2361 6.63188C19.3421 5.89888 18.8331 5.21888 18.1011 5.11288C18.0371 5.10388 3.16412 5.09888 3.16412 5.09888" stroke="#1A162E" stroke-width="1.5" stroke-linecap="round" stroke-linejoin="round"/>
<path d="M12.1251 8.7948H14.8981" stroke="#1A162E" stroke-width="1.5" stroke-linecap="round" stroke-linejoin="round"/>
<path fill-rule="evenodd" clip-rule="evenodd" d="M5.15447 18.202C5.45547 18.202 5.69847 18.446 5.69847 18.746C5.69847 19.047 5.45547 19.291 5.15447 19.291C4.85347 19.291 4.61047 19.047 4.61047 18.746C4.61047 18.446 4.85347 18.202 5.15447 18.202Z" fill="#1A162E" stroke="#1A162E" stroke-width="1.5" stroke-linecap="round" stroke-linejoin="round"/>
<path fill-rule="evenodd" clip-rule="evenodd" d="M16.4347 18.202C16.7357 18.202 16.9797 18.446 16.9797 18.746C16.9797 19.047 16.7357 19.291 16.4347 19.291C16.1337 19.291 15.8907 19.047 15.8907 18.746C15.8907 18.446 16.1337 18.202 16.4347 18.202Z" fill="#1A162E" stroke="#1A162E" stroke-width="1.5" stroke-linecap="round" stroke-linejoin="round"/>
</svg>
