<svg width="190" height="32" viewBox="0 0 190 32" fill="none" xmlns="http://www.w3.org/2000/svg">
<path fill-rule="evenodd" clip-rule="evenodd" d="M4.79999 0H27.2L32 8V30.4C32 31.2837 31.2837 32 30.4 32H1.6C0.716344 32 0 31.2837 0 30.4V8L4.79999 0ZM2.79886 8H29.2011L25.8411 2.4H6.15888L2.79886 8ZM8 12.4C8.66272 12.4 9.2 12.9373 9.2 13.6C9.2 17.3555 12.2445 20.4 16 20.4C19.7555 20.4 22.8 17.3555 22.8 13.6C22.8 12.9373 23.3373 12.4 24 12.4C24.6627 12.4 25.2 12.9373 25.2 13.6C25.2 18.681 21.081 22.8 16 22.8C10.919 22.8 6.8 18.681 6.8 13.6C6.8 12.9373 7.33728 12.4 8 12.4Z" fill="#77DAE6"/>
<path d="M47.122 24.508C48.178 26.752 50.158 27.874 53.062 27.874C54.932 27.874 56.45 27.368 57.616 26.334C58.804 25.3 59.398 23.87 59.398 22.044V10.252H56.032V11.682H55.988C55.086 10.604 53.898 10.076 52.424 10.076C50.796 10.076 49.454 10.67 48.42 11.88C47.386 13.068 46.88 14.454 46.88 16.016C46.88 17.688 47.408 19.096 48.464 20.218C49.52 21.34 50.884 21.912 52.556 21.912C54.008 21.912 55.13 21.384 55.944 20.35H55.988V22.132C55.988 23.958 54.822 24.882 53.04 24.882C51.61 24.882 50.576 24.222 49.916 22.902L47.122 24.508ZM56.076 16.016C56.076 17.754 54.822 18.92 53.216 18.92C51.566 18.92 50.356 17.754 50.356 16.016C50.356 14.322 51.61 13.134 53.216 13.134C54.866 13.134 56.076 14.322 56.076 16.016ZM70.0161 10.208C69.8401 10.142 69.6201 10.12 69.3341 10.12C67.7721 10.12 66.5181 10.978 66.0121 12.056H65.9901V10.252H62.5801V22H66.0121V17.028C66.0121 14.916 66.9801 13.53 69.2021 13.53C69.4881 13.53 69.7521 13.552 70.0161 13.596V10.208ZM70.942 16.148C70.942 17.908 71.558 19.36 72.79 20.526C74.022 21.692 75.54 22.264 77.344 22.264C79.126 22.264 80.644 21.67 81.898 20.504C83.152 19.316 83.768 17.842 83.768 16.082C83.768 14.344 83.152 12.914 81.92 11.748C80.688 10.582 79.17 9.988 77.388 9.988C75.606 9.988 74.066 10.582 72.812 11.77C71.558 12.936 70.942 14.41 70.942 16.148ZM74.462 16.104C74.462 15.246 74.748 14.52 75.298 13.97C75.848 13.398 76.53 13.112 77.344 13.112C78.158 13.112 78.862 13.398 79.412 13.97C79.962 14.52 80.248 15.246 80.248 16.104C80.248 17.864 79.016 19.118 77.366 19.118C76.552 19.118 75.848 18.832 75.298 18.282C74.748 17.71 74.462 16.984 74.462 16.104ZM91.8229 22.264C94.4409 22.264 96.5749 21.01 97.4769 18.612L94.4409 17.358C93.9349 18.524 93.0769 19.096 91.8449 19.096C90.1729 19.096 89.0289 17.864 89.0289 16.104C89.0289 14.278 90.2609 13.134 91.8449 13.134C93.0109 13.134 93.8689 13.706 94.3749 14.872L97.3889 13.618C96.6189 11.308 94.4629 9.988 91.8449 9.988C90.0849 9.988 88.5889 10.582 87.3569 11.77C86.1249 12.958 85.5089 14.41 85.5089 16.148C85.5089 17.908 86.1029 19.36 87.2909 20.526C88.4789 21.692 89.9969 22.264 91.8229 22.264ZM111.056 17.072C111.078 16.808 111.1 16.39 111.1 15.84C111.1 14.102 110.55 12.672 109.472 11.594C108.394 10.516 106.986 9.966 105.248 9.966C103.554 9.966 102.08 10.56 100.848 11.77C99.6381 12.98 99.0221 14.41 99.0221 16.104C99.0221 17.908 99.6381 19.382 100.87 20.548C102.124 21.692 103.642 22.264 105.468 22.264C107.866 22.264 109.538 21.384 110.528 19.602L108.042 17.974C107.514 18.832 106.458 19.382 105.424 19.382C103.95 19.382 102.718 18.502 102.52 17.072H111.056ZM102.608 14.806C102.674 14.344 102.938 13.882 103.4 13.442C103.862 12.98 104.456 12.76 105.16 12.76C106.722 12.76 107.58 13.772 107.668 14.806H102.608ZM120.977 10.208C120.801 10.142 120.581 10.12 120.295 10.12C118.733 10.12 117.479 10.978 116.973 12.056H116.951V10.252H113.541V22H116.973V17.028C116.973 14.916 117.941 13.53 120.163 13.53C120.449 13.53 120.713 13.552 120.977 13.596V10.208ZM126.539 20.746L123.657 27.786H127.331L134.459 10.252H130.917L128.299 16.962L125.373 10.252H121.589L126.539 20.746ZM149.294 13.2C150.57 13.2 151.208 13.948 151.208 15.444V22H154.64V14.674C154.64 11.836 153.254 9.988 150.504 9.988C148.854 9.988 147.754 10.56 146.61 11.858C145.95 10.604 144.806 9.988 143.178 9.988C141.77 9.988 140.384 10.648 139.746 11.792H139.702V10.252H136.336V22H139.768V15.488C139.768 14.102 140.472 13.2 141.858 13.2C143.134 13.2 143.772 13.97 143.772 15.488V22H147.182V15.444C147.182 14.058 147.952 13.2 149.294 13.2ZM160.991 22.22C162.553 22.22 163.719 21.648 164.511 20.526L164.555 20.548V22H167.723V14.718C167.723 11.638 165.721 9.988 162.619 9.988C160.045 9.988 158.241 10.912 157.229 12.782L159.847 14.344C160.441 13.288 161.299 12.76 162.465 12.76C163.697 12.76 164.357 13.398 164.357 14.212C164.357 14.784 164.049 15.07 163.433 15.07H162.267C160.947 15.07 159.847 15.268 158.769 15.774C157.713 16.28 157.031 17.292 157.031 18.678V18.722C157.031 19.778 157.405 20.636 158.175 21.274C158.945 21.912 159.891 22.22 160.991 22.22ZM161.981 19.712C161.101 19.712 160.485 19.316 160.485 18.524C160.485 17.644 161.277 17.182 162.267 17.182H164.335V17.446C164.335 18.744 163.455 19.712 161.981 19.712ZM178.211 10.208C178.035 10.142 177.815 10.12 177.529 10.12C175.967 10.12 174.713 10.978 174.207 12.056H174.185V10.252H170.775V22H174.207V17.028C174.207 14.916 175.175 13.53 177.397 13.53C177.683 13.53 177.947 13.552 178.211 13.596V10.208ZM187.381 19.096C187.139 19.162 186.875 19.184 186.589 19.184C185.247 19.184 184.543 18.656 184.543 17.314V13.222H187.447V10.252H184.543V6.578H181.155V10.252H178.999V13.222H181.111V17.732C181.111 20.482 182.717 22.154 185.775 22.154C186.347 22.154 186.875 22.088 187.381 21.934V19.096Z" fill="#1A162E"/>
</svg>
